<svg xmlns="http://www.w3.org/2000/svg" version="1.1" x="0" y="0" viewBox="0 0 189.1 78.7" xml:space="preserve">
  <path d="M148.7 34.8c-.2.3-.4.8-.3 1.2 0 .4.1.9.2 1.2.2.3.4.5.6.8.3.2.6.4.9.5.4.1.7.2 1.1.2h6.3v2.9H146v-2.8h1.6c-.5-.3-1-.6-1.3-1.2-.5-.7-.7-1.5-.6-2.2 0-.7.1-1.3.4-1.9.2-.5.5-.9 1-1.3.5-.3.9-.5 1.5-.7.5-.2 1.2-.2 1.7-.2h7.2v2.9h-5.8c-.3 0-.7 0-1.1.1-.4 0-.8.1-1.1.2-.4-.1-.6.1-.8.3zm-2.5 17.4c-.3-.7-.5-1.5-.5-2.3-.1-1.5.6-3 1.9-3.9H146v-2.9h11.5V46h-1.6c1.3.9 2 2.3 1.9 3.9 0 .8-.2 1.6-.5 2.3-.3.7-.7 1.3-1.2 1.8s-1.2.9-1.9 1.2c-1.5.5-3.2.5-4.7 0-.7-.2-1.4-.6-1.9-1.2-.6-.5-1.1-1.1-1.4-1.8zm2.1-2.9c0 1.9 1.5 3.4 3.4 3.4s3.4-1.5 3.4-3.4-1.5-3.4-3.4-3.4-3.3 1.5-3.4 3.4zM14.3 69h13.2V31.3H14.3V69zm125.9-18.9c0 10.8-8.2 19.7-18.3 19.7-4.3 0-8.4-1.9-11.3-5.1V69H97.5V18.4h13.2v17.3c2.9-3.3 7-5.1 11.3-5.1 10.1 0 18.2 8.7 18.2 19.5zm-11.7 0c0-5.3-4.3-9.5-9.5-9.5s-9.5 4.3-9.5 9.5 4.3 9.5 9.5 9.5c5.2.1 9.5-4.2 9.5-9.5zm27.3 16.1h1.6V69h-15.3v-2.9h5.5c-1.3-.9-2-2.3-1.9-3.9 0-.8.2-1.6.5-2.3.3-.7.7-1.3 1.2-1.8s1.2-.9 1.9-1.2c1.5-.5 3.2-.5 4.7 0 .7.2 1.3.6 1.9 1.2.5.5 1 1.1 1.2 1.8.3.7.5 1.5.5 2.3.3 1.6-.5 3.1-1.8 4zm-.6-3.3c0-1.9-1.5-3.4-3.4-3.4s-3.4 1.5-3.4 3.4 1.5 3.4 3.4 3.4c1.8 0 3.4-1.5 3.4-3.4zM78.6 30.6c-4.3 0-8.4 1.9-11.3 5.1-5.4-6.2-14.9-6.9-21-1.5-.5.5-1 .9-1.5 1.5v-4.4H31.7V69h13.1V46.3c-.1-3.1 2.3-5.7 5.4-5.8s5.7 2.3 5.8 5.4V69h13.2V46.3c-.1-3.1 2.3-5.7 5.4-5.8s5.7 2.3 5.8 5.4V69h13V45.4c0-8.2-6.6-14.8-14.8-14.8zm78.9-4h-5l5-4.3v-3.8l-5.7 5-5.7-5v3.8l5 4.3h-8.9v2.9h15.3v-2.9z" fill="#003c44"/>
  <circle cx="20.9" cy="18.4" r="9.5" fill="#baf029"/>
</svg>
